<?xml version="1.0" encoding="utf-8"?>
<!-- Generator: Adobe Illustrator 19.0.0, SVG Export Plug-In . SVG Version: 6.00 Build 0)  -->
<svg version="1.1" xmlns="http://www.w3.org/2000/svg" xmlns:xlink="http://www.w3.org/1999/xlink" x="0px" y="0px"
	 viewBox="0 0 2000 2000" style="enable-background:new 0 0 2000 2000;" xml:space="preserve">
<style type="text/css">
	.st0{fill:#2581C4;}
	.st1{fill:#F6A317;}
	.st2{fill:#FFFFFF;}
</style>
<g id="Layer_1">
	<rect class="st0" width="1000" height="1000"/>
</g>
<g id="Layer_2">
	<rect x="1919.4" class="st1" width="40.6" height="1000"/>
</g>
<g id="Layer_3">
	<g>
		<path class="st2" d="M663,1011.6L429.7,663H497L692,963.5L886.2,663h67.2l-234.1,348.6v244H663V1011.6z"/>
		<path class="st2" d="M1066.3,716.2l-58.4,97.6L987,799.8l6.2-52.5l-37.5-55.8l49.8-76.3L1066.3,716.2z"/>
		<path class="st2" d="M1570.3,1255.6h-40.7l-7.5-107.9h-1.7c-39.8,84.7-119.5,120.4-205,120.4c-186.8,0-279.7-146.9-279.7-308.8
			c0-161.9,93-308.8,279.7-308.8c124.5,0,225.8,67.2,247.3,196.7h-56.4c-7.5-68.1-78-148.6-190.9-148.6
			c-156.9,0-223.3,131.1-223.3,260.6s66.4,260.6,223.3,260.6c131.1,0,207.5-92.1,205-217.5h-201.7v-48.1h251.5V1255.6z"/>
	</g>
</g>
<g id="Layer_4">
	<g>
		<path class="st2" d="M1153.6,1518.6c0.1,5.3,2.8,11.6,9.7,11.6c5.3,0,8.1-3.1,9.3-7.6h3.6c-1.5,6.7-5.4,10.6-12.9,10.6
			c-9.4,0-13.3-7.2-13.3-15.6c0-7.8,4-15.6,13.3-15.6c9.5,0,13.3,8.3,13,16.6H1153.6z M1172.7,1515.6c-0.2-5.4-3.6-10.5-9.4-10.5
			c-5.9,0-9.2,5.2-9.7,10.5H1172.7z"/>
		<path class="st2" d="M1178.2,1502.8h3.6v5.1h0.1c1.3-3.6,5.3-6,9.5-6c8.3,0,10.8,4.4,10.8,11.4v19h-3.6V1514
			c0-5.1-1.7-8.9-7.5-8.9c-5.7,0-9.2,4.4-9.3,10.1v17.2h-3.6V1502.8z"/>
		<path class="st2" d="M1211.9,1502.8h6v3h-6v19.9c0,2.3,0.3,3.7,2.9,3.9c1,0,2.1-0.1,3.1-0.2v3.1c-1.1,0-2.1,0.1-3.2,0.1
			c-4.8,0-6.5-1.6-6.4-6.6v-20.2h-5.2v-3h5.2v-8.9h3.6V1502.8z"/>
		<path class="st2" d="M1222.4,1518.6c0.1,5.3,2.8,11.6,9.7,11.6c5.3,0,8.1-3.1,9.3-7.6h3.6c-1.5,6.7-5.4,10.6-12.9,10.6
			c-9.4,0-13.3-7.2-13.3-15.6c0-7.8,4-15.6,13.3-15.6c9.5,0,13.3,8.3,13,16.6H1222.4z M1241.5,1515.6c-0.2-5.4-3.6-10.5-9.4-10.5
			c-5.9,0-9.2,5.2-9.7,10.5H1241.5z"/>
		<path class="st2" d="M1247.2,1502.8h3.3v6.9h0.1c1.8-4.8,5.8-7.6,11.2-7.3v3.6c-6.5-0.3-11,4.5-11,10.6v15.8h-3.6V1502.8z"/>
		<path class="st2" d="M1262.3,1502.8h3.3v5.6h0.1c1.7-4,5.8-6.5,10.5-6.5c9,0,13.3,7.3,13.3,15.6s-4.3,15.6-13.3,15.6
			c-4.4,0-8.7-2.2-10.3-6.5h-0.1v16.6h-3.6V1502.8z M1276.3,1505c-8,0-10.4,5.9-10.4,12.6c0,6.1,2.7,12.6,10.4,12.6
			c6.9,0,9.7-6.5,9.7-12.6C1286,1511.5,1283.2,1505,1276.3,1505z"/>
		<path class="st2" d="M1292.4,1502.8h3.3v6.9h0.1c1.8-4.8,5.8-7.6,11.2-7.3v3.6c-6.5-0.3-11,4.5-11,10.6v15.8h-3.6V1502.8z"/>
		<path class="st2" d="M1307.6,1491.5h3.6v5.8h-3.6V1491.5z M1307.6,1502.8h3.6v29.6h-3.6V1502.8z"/>
		<path class="st2" d="M1333,1511.5c-0.2-4.5-3.6-6.5-7.7-6.5c-3.2,0-7,1.3-7,5.1c0,3.2,3.7,4.4,6.1,5l4.8,1.1
			c4.1,0.6,8.4,3,8.4,8.2c0,6.4-6.4,8.9-11.9,8.9c-6.9,0-11.6-3.2-12.1-10.4h3.6c0.3,4.9,3.9,7.4,8.7,7.4c3.4,0,8.1-1.5,8.1-5.6
			c0-3.4-3.2-4.6-6.5-5.4l-4.6-1c-4.7-1.3-8.2-2.9-8.2-7.9c0-6,5.9-8.3,11.1-8.3c5.9,0,10.6,3.1,10.8,9.5H1333z"/>
		<path class="st2" d="M1342.1,1518.6c0.1,5.3,2.8,11.6,9.7,11.6c5.3,0,8.1-3.1,9.3-7.6h3.6c-1.5,6.7-5.4,10.6-12.9,10.6
			c-9.4,0-13.3-7.2-13.3-15.6c0-7.8,4-15.6,13.3-15.6c9.5,0,13.3,8.3,13,16.6H1342.1z M1361.2,1515.6c-0.2-5.4-3.6-10.5-9.4-10.5
			c-5.9,0-9.2,5.2-9.7,10.5H1361.2z"/>
		<path class="st2" d="M1397.6,1511.5c-0.2-4.5-3.6-6.5-7.7-6.5c-3.2,0-7,1.3-7,5.1c0,3.2,3.7,4.4,6.1,5l4.8,1.1
			c4.1,0.6,8.4,3,8.4,8.2c0,6.4-6.4,8.9-11.9,8.9c-6.9,0-11.6-3.2-12.1-10.4h3.6c0.3,4.9,3.9,7.4,8.7,7.4c3.4,0,8.1-1.5,8.1-5.6
			c0-3.4-3.2-4.6-6.5-5.4l-4.6-1c-4.7-1.3-8.2-2.9-8.2-7.9c0-6,5.9-8.3,11.1-8.3c5.9,0,10.6,3.1,10.8,9.5H1397.6z"/>
		<path class="st2" d="M1431,1517.6c0,8.5-4.9,15.6-14,15.6c-9,0-14-7.2-14-15.6s4.9-15.6,14-15.6
			C1426.1,1502,1431,1509.1,1431,1517.6z M1406.7,1517.6c0,6.3,3.4,12.6,10.4,12.6c6.9,0,10.4-6.3,10.4-12.6s-3.4-12.6-10.4-12.6
			C1410.1,1505,1406.7,1511.3,1406.7,1517.6z"/>
		<path class="st2" d="M1433.6,1491.5h3.6v40.9h-3.6V1491.5z"/>
		<path class="st2" d="M1465.2,1532.4h-3.3v-5.3h-0.1c-1.9,4-5.8,6.2-10.2,6.2c-7.4,0-10.4-4.4-10.4-11.2v-19.2h3.6v19.2
			c0.2,5.3,2.2,8.1,7.9,8.1c6.2,0,8.9-5.8,8.9-11.9v-15.5h3.6V1532.4z"/>
		<path class="st2" d="M1474.9,1502.8h6v3h-6v19.9c0,2.3,0.3,3.7,2.9,3.9c1,0,2.1-0.1,3.1-0.2v3.1c-1.1,0-2.1,0.1-3.2,0.1
			c-4.8,0-6.5-1.6-6.4-6.6v-20.2h-5.2v-3h5.2v-8.9h3.6V1502.8z"/>
		<path class="st2" d="M1483.3,1491.5h3.6v5.8h-3.6V1491.5z M1483.3,1502.8h3.6v29.6h-3.6V1502.8z"/>
		<path class="st2" d="M1517.5,1517.6c0,8.5-4.9,15.6-14,15.6c-9,0-14-7.2-14-15.6s4.9-15.6,14-15.6
			C1512.6,1502,1517.5,1509.1,1517.5,1517.6z M1493.1,1517.6c0,6.3,3.4,12.6,10.4,12.6c6.9,0,10.4-6.3,10.4-12.6
			s-3.4-12.6-10.4-12.6C1496.6,1505,1493.1,1511.3,1493.1,1517.6z"/>
		<path class="st2" d="M1520,1502.8h3.6v5.1h0.1c1.3-3.6,5.3-6,9.5-6c8.3,0,10.8,4.4,10.8,11.4v19h-3.6V1514c0-5.1-1.7-8.9-7.5-8.9
			c-5.7,0-9.2,4.4-9.3,10.1v17.2h-3.6V1502.8z"/>
		<path class="st2" d="M1565.6,1511.5c-0.2-4.5-3.6-6.5-7.7-6.5c-3.2,0-7,1.3-7,5.1c0,3.2,3.7,4.4,6.1,5l4.8,1.1
			c4.1,0.6,8.4,3,8.4,8.2c0,6.4-6.4,8.9-11.9,8.9c-6.9,0-11.6-3.2-12.1-10.4h3.6c0.3,4.9,3.9,7.4,8.7,7.4c3.4,0,8.1-1.5,8.1-5.6
			c0-3.4-3.2-4.6-6.5-5.4l-4.6-1c-4.7-1.3-8.2-2.9-8.2-7.9c0-6,5.9-8.3,11.1-8.3c5.9,0,10.6,3.1,10.8,9.5H1565.6z"/>
	</g>
</g>
<g id="Layer_5">
	<g>
		<path class="st2" d="M1107.5,1470.1v-39.4h31.2v39.4H1107.5z"/>
		<path class="st2" d="M1178.9,1204.5h23.4v37.6h-23.4V1204.5z M1178.9,1278.1h23.4v191.9h-23.4V1278.1z"/>
		<path class="st2" d="M1228.4,1278.1h23.4v33.1h0.7c8.6-23.1,34.2-38.7,61.4-38.7c53.9,0,70.3,28.3,70.3,74v123.5h-23.4v-119.8
			c0-33.1-10.8-58-48.7-58c-37.2,0-59.5,28.3-60.3,65.8v112h-23.4V1278.1z"/>
		<path class="st2" d="M1545.3,1338.4c-6.3-28.6-23.8-46.1-54.3-46.1c-45,0-67.3,40.9-67.3,81.8c0,40.9,22.3,81.8,67.3,81.8
			c29,0,52.8-22.7,55.8-54.7h23.4c-6.3,46.1-36.5,74.4-79.2,74.4c-58.8,0-90.8-46.5-90.8-101.6c0-55.1,32-101.6,90.8-101.6
			c40.9,0,72.5,21.9,77.7,65.8H1545.3z"/>
	</g>
</g>
</svg>
