<?xml version="1.0" encoding="UTF-8"?>
<svg xmlns="http://www.w3.org/2000/svg" xmlns:xlink="http://www.w3.org/1999/xlink" width="64pt" height="64pt" viewBox="0 0 64 64" version="1.1">
<g id="surface1">
<rect x="0" y="0" width="64" height="64" style="fill:rgb(14.509804%,50.588235%,76.862745%);fill-opacity:1;stroke:none;"/>
<path style=" stroke:none;fill-rule:nonzero;fill:rgb(96.470588%,63.921569%,9.019608%);fill-opacity:1;" d="M 61.421875 0 L 64 0 L 64 64 L 61.421875 64 Z M 61.421875 0 "/>
<path style=" stroke:none;fill-rule:nonzero;fill:rgb(100%,100%,100%);fill-opacity:1;" d="M 21.214844 32.371094 L 13.75 21.214844 L 15.90625 21.214844 L 22.144531 30.832031 L 28.359375 21.214844 L 30.511719 21.214844 L 23.015625 32.371094 L 23.015625 40.179688 L 21.214844 40.179688 Z M 21.214844 32.371094 "/>
<path style=" stroke:none;fill-rule:nonzero;fill:rgb(100%,100%,100%);fill-opacity:1;" d="M 34.121094 22.917969 L 32.253906 26.042969 L 31.585938 25.59375 L 31.78125 23.914062 L 30.582031 22.128906 L 32.175781 19.6875 Z M 34.121094 22.917969 "/>
<path style=" stroke:none;fill-rule:nonzero;fill:rgb(100%,100%,100%);fill-opacity:1;" d="M 50.25 40.179688 L 48.949219 40.179688 L 48.707031 36.726562 L 48.652344 36.726562 C 47.378906 39.4375 44.828125 40.578125 42.09375 40.578125 C 36.113281 40.578125 33.140625 35.878906 33.140625 30.699219 C 33.140625 25.515625 36.117188 20.816406 42.09375 20.816406 C 46.078125 20.816406 49.316406 22.96875 50.007812 27.109375 L 48.203125 27.109375 C 47.960938 24.929688 45.703125 22.355469 42.09375 22.355469 C 37.074219 22.355469 34.949219 26.550781 34.949219 30.695312 C 34.949219 34.835938 37.074219 39.03125 42.09375 39.03125 C 46.289062 39.03125 48.734375 36.085938 48.652344 32.074219 L 42.199219 32.074219 L 42.199219 30.535156 L 50.246094 30.535156 L 50.246094 40.179688 Z M 50.25 40.179688 "/>
<path style=" stroke:none;fill-rule:nonzero;fill:rgb(100%,100%,100%);fill-opacity:1;" d="M 36.914062 48.59375 C 36.917969 48.765625 37.003906 48.96875 37.226562 48.96875 C 37.394531 48.96875 37.484375 48.867188 37.523438 48.722656 L 37.636719 48.722656 C 37.589844 48.9375 37.464844 49.0625 37.226562 49.0625 C 36.925781 49.0625 36.800781 48.832031 36.800781 48.5625 C 36.800781 48.3125 36.925781 48.066406 37.226562 48.066406 C 37.53125 48.066406 37.648438 48.328125 37.640625 48.59375 Z M 37.527344 48.5 C 37.519531 48.328125 37.410156 48.164062 37.226562 48.164062 C 37.039062 48.164062 36.929688 48.328125 36.914062 48.5 Z M 37.527344 48.5 "/>
<path style=" stroke:none;fill-rule:nonzero;fill:rgb(100%,100%,100%);fill-opacity:1;" d="M 37.703125 48.089844 L 37.816406 48.089844 L 37.816406 48.253906 L 37.820312 48.253906 C 37.863281 48.136719 37.988281 48.058594 38.125 48.058594 C 38.390625 48.058594 38.46875 48.203125 38.46875 48.425781 L 38.46875 49.03125 L 38.355469 49.03125 L 38.355469 48.449219 C 38.355469 48.285156 38.300781 48.164062 38.113281 48.164062 C 37.933594 48.164062 37.820312 48.304688 37.816406 48.488281 L 37.816406 49.039062 L 37.703125 49.039062 Z M 37.703125 48.089844 "/>
<path style=" stroke:none;fill-rule:nonzero;fill:rgb(100%,100%,100%);fill-opacity:1;" d="M 38.78125 48.089844 L 38.972656 48.089844 L 38.972656 48.183594 L 38.78125 48.183594 L 38.78125 48.824219 C 38.78125 48.894531 38.789062 48.941406 38.871094 48.949219 C 38.90625 48.949219 38.941406 48.945312 38.972656 48.941406 L 38.972656 49.039062 C 38.9375 49.039062 38.90625 49.042969 38.871094 49.042969 C 38.71875 49.042969 38.664062 48.992188 38.664062 48.832031 L 38.664062 48.183594 L 38.5 48.183594 L 38.5 48.089844 L 38.664062 48.089844 L 38.664062 47.804688 L 38.78125 47.804688 Z M 38.78125 48.089844 "/>
<path style=" stroke:none;fill-rule:nonzero;fill:rgb(100%,100%,100%);fill-opacity:1;" d="M 39.117188 48.59375 C 39.121094 48.765625 39.207031 48.96875 39.425781 48.96875 C 39.597656 48.96875 39.6875 48.867188 39.726562 48.722656 L 39.839844 48.722656 C 39.792969 48.9375 39.667969 49.0625 39.425781 49.0625 C 39.128906 49.0625 39.003906 48.832031 39.003906 48.5625 C 39.003906 48.3125 39.128906 48.066406 39.425781 48.066406 C 39.730469 48.066406 39.851562 48.328125 39.84375 48.59375 Z M 39.726562 48.5 C 39.722656 48.328125 39.613281 48.164062 39.425781 48.164062 C 39.238281 48.164062 39.132812 48.328125 39.117188 48.5 Z M 39.726562 48.5 "/>
<path style=" stroke:none;fill-rule:nonzero;fill:rgb(100%,100%,100%);fill-opacity:1;" d="M 39.910156 48.089844 L 40.015625 48.089844 L 40.015625 48.308594 L 40.019531 48.308594 C 40.078125 48.15625 40.203125 48.066406 40.378906 48.078125 L 40.378906 48.191406 C 40.171875 48.183594 40.023438 48.335938 40.023438 48.53125 L 40.023438 49.039062 L 39.910156 49.039062 Z M 39.910156 48.089844 "/>
<path style=" stroke:none;fill-rule:nonzero;fill:rgb(100%,100%,100%);fill-opacity:1;" d="M 40.390625 48.089844 L 40.5 48.089844 L 40.5 48.269531 L 40.503906 48.269531 C 40.558594 48.140625 40.6875 48.058594 40.835938 48.058594 C 41.128906 48.058594 41.265625 48.296875 41.265625 48.558594 C 41.265625 48.824219 41.128906 49.058594 40.835938 49.058594 C 40.699219 49.058594 40.558594 48.988281 40.511719 48.851562 L 40.503906 48.851562 L 40.503906 49.382812 L 40.390625 49.382812 Z M 40.84375 48.160156 C 40.585938 48.160156 40.511719 48.351562 40.511719 48.5625 C 40.511719 48.757812 40.59375 48.96875 40.84375 48.96875 C 41.0625 48.96875 41.152344 48.757812 41.152344 48.5625 C 41.152344 48.367188 41.0625 48.160156 40.84375 48.160156 Z M 40.84375 48.160156 "/>
<path style=" stroke:none;fill-rule:nonzero;fill:rgb(100%,100%,100%);fill-opacity:1;" d="M 41.359375 48.089844 L 41.460938 48.089844 L 41.460938 48.308594 L 41.464844 48.308594 C 41.523438 48.15625 41.648438 48.066406 41.824219 48.078125 L 41.824219 48.191406 C 41.613281 48.183594 41.472656 48.335938 41.472656 48.53125 L 41.472656 49.039062 L 41.359375 49.039062 Z M 41.359375 48.089844 "/>
<path style=" stroke:none;fill-rule:nonzero;fill:rgb(100%,100%,100%);fill-opacity:1;" d="M 41.84375 47.726562 L 41.957031 47.726562 L 41.957031 47.914062 L 41.84375 47.914062 Z M 41.84375 48.089844 L 41.957031 48.089844 L 41.957031 49.039062 L 41.84375 49.039062 Z M 41.84375 48.089844 "/>
<path style=" stroke:none;fill-rule:nonzero;fill:rgb(100%,100%,100%);fill-opacity:1;" d="M 42.65625 48.367188 C 42.648438 48.226562 42.539062 48.160156 42.410156 48.160156 C 42.308594 48.160156 42.183594 48.203125 42.183594 48.324219 C 42.183594 48.425781 42.304688 48.464844 42.378906 48.484375 L 42.535156 48.515625 C 42.664062 48.539062 42.800781 48.613281 42.800781 48.78125 C 42.800781 48.984375 42.597656 49.066406 42.421875 49.066406 C 42.203125 49.066406 42.050781 48.960938 42.035156 48.734375 L 42.148438 48.734375 C 42.160156 48.890625 42.273438 48.96875 42.429688 48.96875 C 42.539062 48.96875 42.6875 48.921875 42.6875 48.789062 C 42.6875 48.683594 42.585938 48.640625 42.480469 48.617188 L 42.332031 48.585938 C 42.183594 48.546875 42.070312 48.492188 42.070312 48.332031 C 42.070312 48.140625 42.261719 48.066406 42.425781 48.066406 C 42.613281 48.066406 42.765625 48.167969 42.769531 48.371094 L 42.65625 48.371094 Z M 42.65625 48.367188 "/>
<path style=" stroke:none;fill-rule:nonzero;fill:rgb(100%,100%,100%);fill-opacity:1;" d="M 42.949219 48.59375 C 42.949219 48.765625 43.039062 48.96875 43.257812 48.96875 C 43.425781 48.96875 43.515625 48.867188 43.554688 48.722656 L 43.671875 48.722656 C 43.621094 48.9375 43.496094 49.0625 43.257812 49.0625 C 42.957031 49.0625 42.832031 48.832031 42.832031 48.5625 C 42.832031 48.3125 42.960938 48.066406 43.257812 48.066406 C 43.5625 48.066406 43.683594 48.328125 43.671875 48.59375 Z M 43.558594 48.5 C 43.550781 48.328125 43.441406 48.164062 43.257812 48.164062 C 43.070312 48.164062 42.960938 48.328125 42.949219 48.5 Z M 43.558594 48.5 "/>
<path style=" stroke:none;fill-rule:nonzero;fill:rgb(100%,100%,100%);fill-opacity:1;" d="M 44.722656 48.367188 C 44.71875 48.226562 44.609375 48.160156 44.476562 48.160156 C 44.375 48.160156 44.253906 48.203125 44.253906 48.324219 C 44.253906 48.425781 44.371094 48.464844 44.449219 48.484375 L 44.601562 48.515625 C 44.734375 48.539062 44.871094 48.613281 44.871094 48.78125 C 44.871094 48.984375 44.664062 49.066406 44.488281 49.066406 C 44.269531 49.066406 44.117188 48.960938 44.101562 48.734375 L 44.21875 48.734375 C 44.226562 48.890625 44.34375 48.96875 44.496094 48.96875 C 44.605469 48.96875 44.753906 48.921875 44.753906 48.789062 C 44.753906 48.683594 44.652344 48.640625 44.546875 48.617188 L 44.398438 48.585938 C 44.25 48.546875 44.136719 48.492188 44.136719 48.332031 C 44.136719 48.140625 44.328125 48.066406 44.492188 48.066406 C 44.683594 48.066406 44.832031 48.167969 44.835938 48.371094 L 44.722656 48.371094 Z M 44.722656 48.367188 "/>
<path style=" stroke:none;fill-rule:nonzero;fill:rgb(100%,100%,100%);fill-opacity:1;" d="M 45.792969 48.5625 C 45.792969 48.835938 45.636719 49.0625 45.34375 49.0625 C 45.054688 49.0625 44.894531 48.832031 44.894531 48.5625 C 44.894531 48.296875 45.050781 48.066406 45.34375 48.066406 C 45.636719 48.066406 45.792969 48.289062 45.792969 48.5625 Z M 45.015625 48.5625 C 45.015625 48.765625 45.121094 48.96875 45.347656 48.96875 C 45.566406 48.96875 45.679688 48.765625 45.679688 48.5625 C 45.679688 48.363281 45.570312 48.160156 45.347656 48.160156 C 45.121094 48.160156 45.015625 48.363281 45.015625 48.5625 Z M 45.015625 48.5625 "/>
<path style=" stroke:none;fill-rule:nonzero;fill:rgb(100%,100%,100%);fill-opacity:1;" d="M 45.875 47.726562 L 45.988281 47.726562 L 45.988281 49.039062 L 45.875 49.039062 Z M 45.875 47.726562 "/>
<path style=" stroke:none;fill-rule:nonzero;fill:rgb(100%,100%,100%);fill-opacity:1;" d="M 46.886719 49.039062 L 46.78125 49.039062 L 46.78125 48.867188 L 46.777344 48.867188 C 46.71875 48.996094 46.59375 49.066406 46.449219 49.066406 C 46.214844 49.066406 46.117188 48.925781 46.117188 48.707031 L 46.117188 48.09375 L 46.234375 48.09375 L 46.234375 48.707031 C 46.238281 48.878906 46.304688 48.96875 46.488281 48.96875 C 46.683594 48.96875 46.769531 48.78125 46.769531 48.585938 L 46.769531 48.089844 L 46.886719 48.089844 Z M 46.886719 49.039062 "/>
<path style=" stroke:none;fill-rule:nonzero;fill:rgb(100%,100%,100%);fill-opacity:1;" d="M 47.199219 48.089844 L 47.390625 48.089844 L 47.390625 48.183594 L 47.199219 48.183594 L 47.199219 48.824219 C 47.199219 48.894531 47.207031 48.941406 47.289062 48.949219 C 47.324219 48.949219 47.359375 48.945312 47.390625 48.941406 L 47.390625 49.039062 C 47.351562 49.039062 47.324219 49.042969 47.289062 49.042969 C 47.132812 49.042969 47.078125 48.992188 47.082031 48.832031 L 47.082031 48.183594 L 46.914062 48.183594 L 46.914062 48.089844 L 47.082031 48.089844 L 47.082031 47.804688 L 47.199219 47.804688 Z M 47.199219 48.089844 "/>
<path style=" stroke:none;fill-rule:nonzero;fill:rgb(100%,100%,100%);fill-opacity:1;" d="M 47.464844 47.726562 L 47.578125 47.726562 L 47.578125 47.914062 L 47.464844 47.914062 Z M 47.464844 48.089844 L 47.578125 48.089844 L 47.578125 49.039062 L 47.464844 49.039062 Z M 47.464844 48.089844 "/>
<path style=" stroke:none;fill-rule:nonzero;fill:rgb(100%,100%,100%);fill-opacity:1;" d="M 48.558594 48.5625 C 48.558594 48.835938 48.402344 49.0625 48.113281 49.0625 C 47.824219 49.0625 47.664062 48.832031 47.664062 48.5625 C 47.664062 48.296875 47.820312 48.066406 48.113281 48.066406 C 48.402344 48.066406 48.558594 48.289062 48.558594 48.5625 Z M 47.78125 48.5625 C 47.78125 48.765625 47.886719 48.96875 48.113281 48.96875 C 48.332031 48.96875 48.445312 48.765625 48.445312 48.5625 C 48.445312 48.363281 48.335938 48.160156 48.113281 48.160156 C 47.890625 48.160156 47.78125 48.363281 47.78125 48.5625 Z M 47.78125 48.5625 "/>
<path style=" stroke:none;fill-rule:nonzero;fill:rgb(100%,100%,100%);fill-opacity:1;" d="M 48.640625 48.089844 L 48.753906 48.089844 L 48.753906 48.253906 L 48.757812 48.253906 C 48.800781 48.136719 48.925781 48.058594 49.0625 48.058594 C 49.328125 48.058594 49.40625 48.203125 49.40625 48.425781 L 49.40625 49.03125 L 49.292969 49.03125 L 49.292969 48.449219 C 49.292969 48.285156 49.238281 48.164062 49.050781 48.164062 C 48.871094 48.164062 48.757812 48.304688 48.753906 48.488281 L 48.753906 49.039062 L 48.640625 49.039062 Z M 48.640625 48.089844 "/>
<path style=" stroke:none;fill-rule:nonzero;fill:rgb(100%,100%,100%);fill-opacity:1;" d="M 50.101562 48.367188 C 50.09375 48.226562 49.984375 48.160156 49.851562 48.160156 C 49.75 48.160156 49.628906 48.203125 49.628906 48.324219 C 49.628906 48.425781 49.746094 48.464844 49.824219 48.484375 L 49.976562 48.515625 C 50.109375 48.539062 50.246094 48.613281 50.246094 48.78125 C 50.246094 48.984375 50.042969 49.066406 49.863281 49.066406 C 49.644531 49.066406 49.496094 48.960938 49.476562 48.734375 L 49.59375 48.734375 C 49.601562 48.890625 49.71875 48.96875 49.871094 48.96875 C 49.980469 48.96875 50.128906 48.921875 50.128906 48.789062 C 50.128906 48.683594 50.03125 48.640625 49.921875 48.617188 L 49.773438 48.585938 C 49.625 48.546875 49.511719 48.492188 49.511719 48.332031 C 49.511719 48.140625 49.703125 48.066406 49.871094 48.066406 C 50.058594 48.066406 50.207031 48.167969 50.214844 48.371094 L 50.101562 48.371094 Z M 50.101562 48.367188 "/>
<path style=" stroke:none;fill-rule:nonzero;fill:rgb(100%,100%,100%);fill-opacity:1;" d="M 35.441406 47.042969 L 35.441406 45.78125 L 36.4375 45.78125 L 36.4375 47.042969 Z M 35.441406 47.042969 "/>
<path style=" stroke:none;fill-rule:nonzero;fill:rgb(100%,100%,100%);fill-opacity:1;" d="M 37.726562 38.546875 L 38.472656 38.546875 L 38.472656 39.746094 L 37.726562 39.746094 Z M 37.726562 40.898438 L 38.472656 40.898438 L 38.472656 47.039062 L 37.726562 47.039062 Z M 37.726562 40.898438 "/>
<path style=" stroke:none;fill-rule:nonzero;fill:rgb(100%,100%,100%);fill-opacity:1;" d="M 39.308594 40.898438 L 40.058594 40.898438 L 40.058594 41.957031 L 40.078125 41.957031 C 40.355469 41.21875 41.175781 40.71875 42.046875 40.71875 C 43.769531 40.71875 44.296875 41.625 44.296875 43.085938 L 44.296875 47.039062 L 43.546875 47.039062 L 43.546875 43.207031 C 43.546875 42.148438 43.199219 41.351562 41.988281 41.351562 C 40.796875 41.351562 40.082031 42.253906 40.058594 43.453125 L 40.058594 47.039062 L 39.308594 47.039062 Z M 39.308594 40.898438 "/>
<path style=" stroke:none;fill-rule:nonzero;fill:rgb(100%,100%,100%);fill-opacity:1;" d="M 49.449219 42.828125 C 49.246094 41.914062 48.6875 41.351562 47.710938 41.351562 C 46.273438 41.351562 45.558594 42.664062 45.558594 43.96875 C 45.558594 45.28125 46.273438 46.589844 47.710938 46.589844 C 48.640625 46.589844 49.402344 45.863281 49.496094 44.835938 L 50.246094 44.835938 C 50.046875 46.3125 49.078125 47.21875 47.710938 47.21875 C 45.828125 47.21875 44.808594 45.730469 44.808594 43.96875 C 44.808594 42.203125 45.828125 40.71875 47.710938 40.71875 C 49.019531 40.71875 50.03125 41.417969 50.199219 42.824219 L 49.449219 42.824219 Z M 49.449219 42.828125 "/>
</g>
</svg>
