<?xml version="1.0" encoding="UTF-8"?>
<svg xmlns="http://www.w3.org/2000/svg" xmlns:xlink="http://www.w3.org/1999/xlink" width="100pt" height="100pt" viewBox="0 0 100 100" version="1.1">
<g id="surface1">
<rect x="0" y="0" width="100" height="100" style="fill:rgb(14.509804%,50.588235%,76.862745%);fill-opacity:1;stroke:none;"/>
<path style=" stroke:none;fill-rule:nonzero;fill:rgb(96.470588%,63.921569%,9.019608%);fill-opacity:1;" d="M 95.96875 0 L 100 0 L 100 100 L 95.96875 100 Z M 95.96875 0 "/>
<path style=" stroke:none;fill-rule:nonzero;fill:rgb(100%,100%,100%);fill-opacity:1;" d="M 33.148438 50.578125 L 21.484375 33.148438 L 24.851562 33.148438 L 34.601562 48.175781 L 44.308594 33.148438 L 47.671875 33.148438 L 35.964844 50.578125 L 35.964844 62.78125 L 33.148438 62.78125 Z M 33.148438 50.578125 "/>
<path style=" stroke:none;fill-rule:nonzero;fill:rgb(100%,100%,100%);fill-opacity:1;" d="M 53.316406 35.808594 L 50.394531 40.691406 L 49.351562 39.988281 L 49.660156 37.363281 L 47.785156 34.574219 L 50.273438 30.761719 Z M 53.316406 35.808594 "/>
<path style=" stroke:none;fill-rule:nonzero;fill:rgb(100%,100%,100%);fill-opacity:1;" d="M 78.515625 62.78125 L 76.480469 62.78125 L 76.105469 57.386719 L 76.019531 57.386719 C 74.03125 61.621094 70.046875 63.40625 65.769531 63.40625 C 56.429688 63.40625 51.785156 56.058594 51.785156 47.964844 C 51.785156 39.871094 56.433594 32.523438 65.769531 32.523438 C 71.996094 32.523438 77.058594 35.886719 78.136719 42.359375 L 75.316406 42.359375 C 74.941406 38.953125 71.414062 34.929688 65.769531 34.929688 C 57.925781 34.929688 54.605469 41.484375 54.605469 47.960938 C 54.605469 54.433594 57.925781 60.988281 65.769531 60.988281 C 72.324219 60.988281 76.144531 56.386719 76.019531 50.113281 L 65.933594 50.113281 L 65.933594 47.710938 L 78.511719 47.710938 L 78.511719 62.78125 Z M 78.515625 62.78125 "/>
<path style=" stroke:none;fill-rule:nonzero;fill:rgb(100%,100%,100%);fill-opacity:1;" d="M 57.679688 75.929688 C 57.683594 76.195312 57.820312 76.511719 58.164062 76.511719 C 58.429688 76.511719 58.570312 76.355469 58.628906 76.128906 L 58.808594 76.128906 C 58.734375 76.464844 58.539062 76.660156 58.164062 76.660156 C 57.695312 76.660156 57.5 76.300781 57.5 75.878906 C 57.5 75.488281 57.699219 75.101562 58.164062 75.101562 C 58.640625 75.101562 58.828125 75.515625 58.816406 75.929688 Z M 58.636719 75.78125 C 58.625 75.511719 58.453125 75.253906 58.164062 75.253906 C 57.871094 75.253906 57.703125 75.515625 57.679688 75.78125 Z M 58.636719 75.78125 "/>
<path style=" stroke:none;fill-rule:nonzero;fill:rgb(100%,100%,100%);fill-opacity:1;" d="M 58.910156 75.140625 L 59.089844 75.140625 L 59.089844 75.394531 L 59.09375 75.394531 C 59.160156 75.214844 59.359375 75.09375 59.570312 75.09375 C 59.984375 75.09375 60.109375 75.316406 60.109375 75.664062 L 60.109375 76.613281 L 59.929688 76.613281 L 59.929688 75.699219 C 59.929688 75.445312 59.84375 75.253906 59.554688 75.253906 C 59.269531 75.253906 59.09375 75.476562 59.089844 75.761719 L 59.089844 76.621094 L 58.910156 76.621094 Z M 58.910156 75.140625 "/>
<path style=" stroke:none;fill-rule:nonzero;fill:rgb(100%,100%,100%);fill-opacity:1;" d="M 60.59375 75.140625 L 60.894531 75.140625 L 60.894531 75.289062 L 60.59375 75.289062 L 60.59375 76.285156 C 60.59375 76.398438 60.609375 76.46875 60.738281 76.480469 C 60.789062 76.480469 60.84375 76.476562 60.894531 76.46875 L 60.894531 76.625 C 60.839844 76.625 60.789062 76.628906 60.734375 76.628906 C 60.496094 76.628906 60.410156 76.550781 60.414062 76.300781 L 60.414062 75.289062 L 60.15625 75.289062 L 60.15625 75.140625 L 60.414062 75.140625 L 60.414062 74.695312 L 60.59375 74.695312 Z M 60.59375 75.140625 "/>
<path style=" stroke:none;fill-rule:nonzero;fill:rgb(100%,100%,100%);fill-opacity:1;" d="M 61.121094 75.929688 C 61.125 76.195312 61.261719 76.511719 61.605469 76.511719 C 61.871094 76.511719 62.011719 76.355469 62.070312 76.128906 L 62.25 76.128906 C 62.175781 76.464844 61.980469 76.660156 61.605469 76.660156 C 61.136719 76.660156 60.941406 76.300781 60.941406 75.878906 C 60.941406 75.488281 61.140625 75.101562 61.605469 75.101562 C 62.078125 75.101562 62.269531 75.515625 62.253906 75.929688 Z M 62.074219 75.78125 C 62.066406 75.511719 61.894531 75.253906 61.605469 75.253906 C 61.308594 75.253906 61.144531 75.515625 61.121094 75.78125 Z M 62.074219 75.78125 "/>
<path style=" stroke:none;fill-rule:nonzero;fill:rgb(100%,100%,100%);fill-opacity:1;" d="M 62.359375 75.140625 L 62.523438 75.140625 L 62.523438 75.484375 L 62.53125 75.484375 C 62.621094 75.246094 62.820312 75.105469 63.089844 75.121094 L 63.089844 75.300781 C 62.765625 75.285156 62.539062 75.523438 62.539062 75.828125 L 62.539062 76.621094 L 62.359375 76.621094 Z M 62.359375 75.140625 "/>
<path style=" stroke:none;fill-rule:nonzero;fill:rgb(100%,100%,100%);fill-opacity:1;" d="M 63.113281 75.140625 L 63.28125 75.140625 L 63.28125 75.421875 L 63.285156 75.421875 C 63.371094 75.21875 63.574219 75.09375 63.808594 75.09375 C 64.261719 75.09375 64.476562 75.460938 64.476562 75.875 C 64.476562 76.289062 64.261719 76.65625 63.808594 76.65625 C 63.589844 76.65625 63.375 76.546875 63.296875 76.328125 L 63.289062 76.328125 L 63.289062 77.160156 L 63.109375 77.160156 L 63.109375 75.140625 Z M 63.816406 75.25 C 63.414062 75.25 63.296875 75.546875 63.296875 75.878906 C 63.296875 76.183594 63.429688 76.511719 63.816406 76.511719 C 64.160156 76.511719 64.300781 76.183594 64.300781 75.878906 C 64.300781 75.574219 64.160156 75.25 63.816406 75.25 Z M 63.816406 75.25 "/>
<path style=" stroke:none;fill-rule:nonzero;fill:rgb(100%,100%,100%);fill-opacity:1;" d="M 64.621094 75.140625 L 64.785156 75.140625 L 64.785156 75.484375 L 64.789062 75.484375 C 64.878906 75.246094 65.078125 75.105469 65.351562 75.121094 L 65.351562 75.300781 C 65.023438 75.285156 64.800781 75.523438 64.800781 75.828125 L 64.800781 76.621094 L 64.621094 76.621094 Z M 64.621094 75.140625 "/>
<path style=" stroke:none;fill-rule:nonzero;fill:rgb(100%,100%,100%);fill-opacity:1;" d="M 65.378906 74.574219 L 65.558594 74.574219 L 65.558594 74.863281 L 65.378906 74.863281 Z M 65.378906 75.140625 L 65.558594 75.140625 L 65.558594 76.621094 L 65.378906 76.621094 Z M 65.378906 75.140625 "/>
<path style=" stroke:none;fill-rule:nonzero;fill:rgb(100%,100%,100%);fill-opacity:1;" d="M 66.648438 75.574219 C 66.640625 75.351562 66.46875 75.25 66.265625 75.25 C 66.105469 75.25 65.914062 75.316406 65.914062 75.503906 C 65.914062 75.664062 66.101562 75.726562 66.21875 75.753906 L 66.460938 75.808594 C 66.664062 75.839844 66.878906 75.960938 66.878906 76.21875 C 66.878906 76.539062 66.558594 76.664062 66.285156 76.664062 C 65.941406 76.664062 65.703125 76.503906 65.679688 76.144531 L 65.859375 76.144531 C 65.875 76.390625 66.054688 76.515625 66.296875 76.515625 C 66.464844 76.515625 66.699219 76.441406 66.699219 76.234375 C 66.699219 76.066406 66.539062 76.003906 66.375 75.964844 L 66.144531 75.914062 C 65.910156 75.851562 65.734375 75.769531 65.734375 75.519531 C 65.734375 75.21875 66.03125 75.105469 66.289062 75.105469 C 66.585938 75.105469 66.820312 75.261719 66.828125 75.578125 L 66.648438 75.578125 Z M 66.648438 75.574219 "/>
<path style=" stroke:none;fill-rule:nonzero;fill:rgb(100%,100%,100%);fill-opacity:1;" d="M 67.105469 75.929688 C 67.109375 76.195312 67.246094 76.511719 67.589844 76.511719 C 67.855469 76.511719 67.996094 76.355469 68.054688 76.128906 L 68.234375 76.128906 C 68.160156 76.464844 67.964844 76.660156 67.589844 76.660156 C 67.121094 76.660156 66.925781 76.300781 66.925781 75.878906 C 66.925781 75.488281 67.125 75.101562 67.589844 75.101562 C 68.066406 75.101562 68.253906 75.515625 68.238281 75.929688 Z M 68.058594 75.78125 C 68.050781 75.511719 67.878906 75.253906 67.589844 75.253906 C 67.296875 75.253906 67.128906 75.515625 67.105469 75.78125 Z M 68.058594 75.78125 "/>
<path style=" stroke:none;fill-rule:nonzero;fill:rgb(100%,100%,100%);fill-opacity:1;" d="M 69.878906 75.574219 C 69.871094 75.351562 69.699219 75.25 69.496094 75.25 C 69.335938 75.25 69.144531 75.316406 69.144531 75.503906 C 69.144531 75.664062 69.328125 75.726562 69.449219 75.753906 L 69.691406 75.808594 C 69.894531 75.839844 70.109375 75.960938 70.109375 76.21875 C 70.109375 76.539062 69.789062 76.664062 69.515625 76.664062 C 69.171875 76.664062 68.933594 76.503906 68.910156 76.144531 L 69.089844 76.144531 C 69.105469 76.390625 69.285156 76.515625 69.523438 76.515625 C 69.695312 76.515625 69.929688 76.441406 69.929688 76.234375 C 69.929688 76.066406 69.769531 76.003906 69.605469 75.964844 L 69.375 75.914062 C 69.140625 75.851562 68.964844 75.769531 68.964844 75.519531 C 68.964844 75.21875 69.261719 75.105469 69.519531 75.105469 C 69.816406 75.105469 70.050781 75.261719 70.058594 75.578125 L 69.878906 75.578125 Z M 69.878906 75.574219 "/>
<path style=" stroke:none;fill-rule:nonzero;fill:rgb(100%,100%,100%);fill-opacity:1;" d="M 71.550781 75.878906 C 71.550781 76.304688 71.304688 76.660156 70.851562 76.660156 C 70.398438 76.660156 70.148438 76.300781 70.148438 75.878906 C 70.148438 75.460938 70.394531 75.101562 70.851562 75.101562 C 71.304688 75.101562 71.550781 75.453125 71.550781 75.878906 Z M 70.335938 75.878906 C 70.335938 76.195312 70.503906 76.511719 70.855469 76.511719 C 71.199219 76.511719 71.375 76.195312 71.375 75.878906 C 71.375 75.566406 71.203125 75.25 70.855469 75.25 C 70.503906 75.25 70.335938 75.566406 70.335938 75.878906 Z M 70.335938 75.878906 "/>
<path style=" stroke:none;fill-rule:nonzero;fill:rgb(100%,100%,100%);fill-opacity:1;" d="M 71.679688 74.574219 L 71.859375 74.574219 L 71.859375 76.621094 L 71.679688 76.621094 Z M 71.679688 74.574219 "/>
<path style=" stroke:none;fill-rule:nonzero;fill:rgb(100%,100%,100%);fill-opacity:1;" d="M 73.261719 76.621094 L 73.09375 76.621094 L 73.09375 76.355469 L 73.089844 76.355469 C 72.996094 76.554688 72.800781 76.664062 72.578125 76.664062 C 72.210938 76.664062 72.058594 76.445312 72.058594 76.105469 L 72.058594 75.144531 L 72.238281 75.144531 L 72.238281 76.105469 C 72.25 76.371094 72.351562 76.511719 72.636719 76.511719 C 72.945312 76.511719 73.078125 76.21875 73.078125 75.914062 L 73.078125 75.140625 L 73.261719 75.140625 Z M 73.261719 76.621094 "/>
<path style=" stroke:none;fill-rule:nonzero;fill:rgb(100%,100%,100%);fill-opacity:1;" d="M 73.746094 75.140625 L 74.046875 75.140625 L 74.046875 75.289062 L 73.746094 75.289062 L 73.746094 76.285156 C 73.746094 76.398438 73.761719 76.46875 73.890625 76.480469 C 73.941406 76.480469 73.996094 76.476562 74.046875 76.46875 L 74.046875 76.625 C 73.988281 76.625 73.941406 76.628906 73.886719 76.628906 C 73.644531 76.628906 73.558594 76.550781 73.566406 76.300781 L 73.566406 75.289062 L 73.304688 75.289062 L 73.304688 75.140625 L 73.566406 75.140625 L 73.566406 74.695312 L 73.746094 74.695312 Z M 73.746094 75.140625 "/>
<path style=" stroke:none;fill-rule:nonzero;fill:rgb(100%,100%,100%);fill-opacity:1;" d="M 74.164062 74.574219 L 74.34375 74.574219 L 74.34375 74.863281 L 74.164062 74.863281 Z M 74.164062 75.140625 L 74.34375 75.140625 L 74.34375 76.621094 L 74.164062 76.621094 Z M 74.164062 75.140625 "/>
<path style=" stroke:none;fill-rule:nonzero;fill:rgb(100%,100%,100%);fill-opacity:1;" d="M 75.875 75.878906 C 75.875 76.304688 75.628906 76.660156 75.175781 76.660156 C 74.726562 76.660156 74.476562 76.300781 74.476562 75.878906 C 74.476562 75.460938 74.71875 75.101562 75.175781 75.101562 C 75.628906 75.101562 75.875 75.453125 75.875 75.878906 Z M 74.65625 75.878906 C 74.65625 76.195312 74.824219 76.511719 75.175781 76.511719 C 75.519531 76.511719 75.695312 76.195312 75.695312 75.878906 C 75.695312 75.566406 75.523438 75.25 75.175781 75.25 C 74.828125 75.25 74.65625 75.566406 74.65625 75.878906 Z M 74.65625 75.878906 "/>
<path style=" stroke:none;fill-rule:nonzero;fill:rgb(100%,100%,100%);fill-opacity:1;" d="M 76 75.140625 L 76.179688 75.140625 L 76.179688 75.394531 L 76.183594 75.394531 C 76.25 75.214844 76.449219 75.09375 76.660156 75.09375 C 77.074219 75.09375 77.199219 75.316406 77.199219 75.664062 L 77.199219 76.613281 L 77.019531 76.613281 L 77.019531 75.699219 C 77.019531 75.445312 76.933594 75.253906 76.644531 75.253906 C 76.359375 75.253906 76.183594 75.476562 76.179688 75.761719 L 76.179688 76.621094 L 76 76.621094 Z M 76 75.140625 "/>
<path style=" stroke:none;fill-rule:nonzero;fill:rgb(100%,100%,100%);fill-opacity:1;" d="M 78.28125 75.574219 C 78.269531 75.351562 78.101562 75.25 77.894531 75.25 C 77.734375 75.25 77.546875 75.316406 77.546875 75.503906 C 77.546875 75.664062 77.730469 75.726562 77.851562 75.753906 L 78.089844 75.808594 C 78.296875 75.839844 78.511719 75.960938 78.511719 76.21875 C 78.511719 76.539062 78.191406 76.664062 77.914062 76.664062 C 77.570312 76.664062 77.335938 76.503906 77.308594 76.144531 L 77.488281 76.144531 C 77.503906 76.390625 77.683594 76.515625 77.925781 76.515625 C 78.09375 76.515625 78.328125 76.441406 78.328125 76.234375 C 78.328125 76.066406 78.171875 76.003906 78.003906 75.964844 L 77.773438 75.914062 C 77.539062 75.851562 77.363281 75.769531 77.363281 75.519531 C 77.363281 75.21875 77.660156 75.105469 77.921875 75.105469 C 78.214844 75.105469 78.449219 75.261719 78.460938 75.578125 L 78.28125 75.578125 Z M 78.28125 75.574219 "/>
<path style=" stroke:none;fill-rule:nonzero;fill:rgb(100%,100%,100%);fill-opacity:1;" d="M 55.375 73.503906 L 55.375 71.535156 L 56.933594 71.535156 L 56.933594 73.503906 Z M 55.375 73.503906 "/>
<path style=" stroke:none;fill-rule:nonzero;fill:rgb(100%,100%,100%);fill-opacity:1;" d="M 58.945312 60.226562 L 60.113281 60.226562 L 60.113281 62.105469 L 58.945312 62.105469 Z M 58.945312 63.90625 L 60.113281 63.90625 L 60.113281 73.5 L 58.945312 73.5 Z M 58.945312 63.90625 "/>
<path style=" stroke:none;fill-rule:nonzero;fill:rgb(100%,100%,100%);fill-opacity:1;" d="M 61.421875 63.90625 L 62.589844 63.90625 L 62.589844 65.558594 L 62.625 65.558594 C 63.054688 64.40625 64.335938 63.625 65.695312 63.625 C 68.390625 63.625 69.210938 65.039062 69.210938 67.324219 L 69.210938 73.5 L 68.039062 73.5 L 68.039062 67.511719 C 68.039062 65.855469 67.5 64.609375 65.605469 64.609375 C 63.746094 64.609375 62.628906 66.023438 62.589844 67.898438 L 62.589844 73.5 L 61.421875 73.5 Z M 61.421875 63.90625 "/>
<path style=" stroke:none;fill-rule:nonzero;fill:rgb(100%,100%,100%);fill-opacity:1;" d="M 77.265625 66.921875 C 76.949219 65.488281 76.074219 64.613281 74.550781 64.613281 C 72.300781 64.613281 71.183594 66.660156 71.183594 68.703125 C 71.183594 70.75 72.300781 72.796875 74.550781 72.796875 C 76 72.796875 77.191406 71.660156 77.339844 70.058594 L 78.511719 70.058594 C 78.195312 72.363281 76.683594 73.78125 74.550781 73.78125 C 71.609375 73.78125 70.011719 71.453125 70.011719 68.699219 C 70.011719 65.945312 71.609375 63.621094 74.550781 63.621094 C 76.59375 63.621094 78.175781 64.714844 78.433594 66.910156 L 77.265625 66.910156 Z M 77.265625 66.921875 "/>
</g>
</svg>
